<mxfile host="Electron" agent="Mozilla/5.0 (Windows NT 10.0; Win64; x64) AppleWebKit/537.36 (KHTML, like Gecko) draw.io/26.0.9 Chrome/128.0.6613.186 Electron/32.2.5 Safari/537.36" version="26.0.9">
  <diagram name="Página-1" id="P1R4cx2Ud3vtf2QD-WIv">
    <mxGraphModel dx="2206" dy="1351" grid="1" gridSize="10" guides="1" tooltips="1" connect="1" arrows="1" fold="1" page="1" pageScale="1" pageWidth="3300" pageHeight="4681" math="0" shadow="0">
      <root>
        <mxCell id="0" />
        <mxCell id="1" parent="0" />
        <mxCell id="9mjTdynTitgVb2BbLHVz-1" value="SOC" style="swimlane;childLayout=stackLayout;resizeParent=1;resizeParentMax=0;startSize=20;html=1;" vertex="1" parent="1">
          <mxGeometry x="800" y="250" width="600" height="1070" as="geometry" />
        </mxCell>
        <mxCell id="9mjTdynTitgVb2BbLHVz-2" value="Analista de seguridad" style="swimlane;startSize=20;html=1;" vertex="1" parent="9mjTdynTitgVb2BbLHVz-1">
          <mxGeometry y="20" width="270" height="1050" as="geometry" />
        </mxCell>
        <mxCell id="9mjTdynTitgVb2BbLHVz-14" style="edgeStyle=orthogonalEdgeStyle;rounded=0;orthogonalLoop=1;jettySize=auto;html=1;exitX=0.5;exitY=1;exitDx=0;exitDy=0;" edge="1" parent="9mjTdynTitgVb2BbLHVz-2" source="9mjTdynTitgVb2BbLHVz-10" target="9mjTdynTitgVb2BbLHVz-13">
          <mxGeometry relative="1" as="geometry" />
        </mxCell>
        <mxCell id="9mjTdynTitgVb2BbLHVz-15" style="edgeStyle=orthogonalEdgeStyle;rounded=0;orthogonalLoop=1;jettySize=auto;html=1;exitX=0.5;exitY=1;exitDx=0;exitDy=0;entryX=0.5;entryY=0;entryDx=0;entryDy=0;" edge="1" parent="9mjTdynTitgVb2BbLHVz-2" source="9mjTdynTitgVb2BbLHVz-10" target="9mjTdynTitgVb2BbLHVz-12">
          <mxGeometry relative="1" as="geometry" />
        </mxCell>
        <mxCell id="9mjTdynTitgVb2BbLHVz-10" value="Evaluar incidencias" style="html=1;align=center;verticalAlign=top;rounded=1;absoluteArcSize=1;arcSize=10;dashed=0;whiteSpace=wrap;" vertex="1" parent="9mjTdynTitgVb2BbLHVz-2">
          <mxGeometry x="65" y="140" width="140" height="30" as="geometry" />
        </mxCell>
        <mxCell id="9mjTdynTitgVb2BbLHVz-12" value="Listado incidencias con mayor desviación de tiempo medio" style="fontStyle=0;html=1;whiteSpace=wrap;" vertex="1" parent="9mjTdynTitgVb2BbLHVz-2">
          <mxGeometry x="140" y="210" width="120" height="60" as="geometry" />
        </mxCell>
        <mxCell id="9mjTdynTitgVb2BbLHVz-13" value="Listado empleados involucrados" style="fontStyle=0;html=1;whiteSpace=wrap;" vertex="1" parent="9mjTdynTitgVb2BbLHVz-2">
          <mxGeometry x="10" y="210" width="120" height="60" as="geometry" />
        </mxCell>
        <mxCell id="9mjTdynTitgVb2BbLHVz-3" value="Gerente de op. de seguridad" style="swimlane;startSize=20;html=1;" vertex="1" parent="9mjTdynTitgVb2BbLHVz-1">
          <mxGeometry x="270" y="20" width="330" height="1050" as="geometry" />
        </mxCell>
        <mxCell id="9mjTdynTitgVb2BbLHVz-9" style="edgeStyle=orthogonalEdgeStyle;rounded=0;orthogonalLoop=1;jettySize=auto;html=1;exitX=0.5;exitY=1;exitDx=0;exitDy=0;entryX=0.5;entryY=0;entryDx=0;entryDy=0;" edge="1" parent="9mjTdynTitgVb2BbLHVz-3" source="9mjTdynTitgVb2BbLHVz-7" target="9mjTdynTitgVb2BbLHVz-8">
          <mxGeometry relative="1" as="geometry" />
        </mxCell>
        <mxCell id="9mjTdynTitgVb2BbLHVz-7" value="" style="ellipse;fillColor=strokeColor;html=1;" vertex="1" parent="9mjTdynTitgVb2BbLHVz-3">
          <mxGeometry x="155" y="50" width="20" height="20" as="geometry" />
        </mxCell>
        <mxCell id="9mjTdynTitgVb2BbLHVz-8" value="Obtener listado de incidencias" style="html=1;align=center;verticalAlign=top;rounded=1;absoluteArcSize=1;arcSize=10;dashed=0;whiteSpace=wrap;" vertex="1" parent="9mjTdynTitgVb2BbLHVz-3">
          <mxGeometry x="95" y="100" width="140" height="40" as="geometry" />
        </mxCell>
        <mxCell id="9mjTdynTitgVb2BbLHVz-19" style="edgeStyle=orthogonalEdgeStyle;rounded=0;orthogonalLoop=1;jettySize=auto;html=1;exitX=0.5;exitY=1;exitDx=0;exitDy=0;entryX=0.5;entryY=0;entryDx=0;entryDy=0;" edge="1" parent="9mjTdynTitgVb2BbLHVz-3" source="9mjTdynTitgVb2BbLHVz-16" target="9mjTdynTitgVb2BbLHVz-18">
          <mxGeometry relative="1" as="geometry" />
        </mxCell>
        <mxCell id="9mjTdynTitgVb2BbLHVz-16" value="Evaluar posibilidad de mejora" style="html=1;align=center;verticalAlign=top;rounded=1;absoluteArcSize=1;arcSize=10;dashed=0;whiteSpace=wrap;" vertex="1" parent="9mjTdynTitgVb2BbLHVz-3">
          <mxGeometry x="95" y="220" width="140" height="40" as="geometry" />
        </mxCell>
        <mxCell id="9mjTdynTitgVb2BbLHVz-21" style="edgeStyle=orthogonalEdgeStyle;rounded=0;orthogonalLoop=1;jettySize=auto;html=1;exitX=0;exitY=0.5;exitDx=0;exitDy=0;entryX=1;entryY=0.5;entryDx=0;entryDy=0;" edge="1" parent="9mjTdynTitgVb2BbLHVz-3" source="9mjTdynTitgVb2BbLHVz-18" target="9mjTdynTitgVb2BbLHVz-20">
          <mxGeometry relative="1" as="geometry" />
        </mxCell>
        <mxCell id="9mjTdynTitgVb2BbLHVz-45" style="edgeStyle=orthogonalEdgeStyle;rounded=0;orthogonalLoop=1;jettySize=auto;html=1;exitX=1;exitY=0.5;exitDx=0;exitDy=0;entryX=0;entryY=0.5;entryDx=0;entryDy=0;" edge="1" parent="9mjTdynTitgVb2BbLHVz-3" source="9mjTdynTitgVb2BbLHVz-18" target="9mjTdynTitgVb2BbLHVz-44">
          <mxGeometry relative="1" as="geometry" />
        </mxCell>
        <mxCell id="9mjTdynTitgVb2BbLHVz-63" style="edgeStyle=orthogonalEdgeStyle;rounded=0;orthogonalLoop=1;jettySize=auto;html=1;exitX=0.5;exitY=1;exitDx=0;exitDy=0;entryX=0.5;entryY=0;entryDx=0;entryDy=0;" edge="1" parent="9mjTdynTitgVb2BbLHVz-3" source="9mjTdynTitgVb2BbLHVz-18" target="9mjTdynTitgVb2BbLHVz-62">
          <mxGeometry relative="1" as="geometry" />
        </mxCell>
        <mxCell id="9mjTdynTitgVb2BbLHVz-18" value="" style="rhombus;" vertex="1" parent="9mjTdynTitgVb2BbLHVz-3">
          <mxGeometry x="150" y="290" width="30" height="30" as="geometry" />
        </mxCell>
        <mxCell id="9mjTdynTitgVb2BbLHVz-23" style="edgeStyle=orthogonalEdgeStyle;rounded=0;orthogonalLoop=1;jettySize=auto;html=1;exitX=0.5;exitY=1;exitDx=0;exitDy=0;entryX=0.5;entryY=0;entryDx=0;entryDy=0;" edge="1" parent="9mjTdynTitgVb2BbLHVz-3" source="9mjTdynTitgVb2BbLHVz-20" target="9mjTdynTitgVb2BbLHVz-22">
          <mxGeometry relative="1" as="geometry" />
        </mxCell>
        <mxCell id="9mjTdynTitgVb2BbLHVz-20" value="Solicitar formación" style="html=1;align=center;verticalAlign=top;rounded=1;absoluteArcSize=1;arcSize=10;dashed=0;whiteSpace=wrap;" vertex="1" parent="9mjTdynTitgVb2BbLHVz-3">
          <mxGeometry x="40" y="285" width="75" height="40" as="geometry" />
        </mxCell>
        <mxCell id="9mjTdynTitgVb2BbLHVz-22" value="Listado empleados involucrados&lt;div&gt;[Actualizada]&lt;/div&gt;" style="fontStyle=0;html=1;whiteSpace=wrap;" vertex="1" parent="9mjTdynTitgVb2BbLHVz-3">
          <mxGeometry x="22.5" y="360" width="110" height="50" as="geometry" />
        </mxCell>
        <mxCell id="9mjTdynTitgVb2BbLHVz-44" value="Solicitar automatización" style="html=1;align=center;verticalAlign=top;rounded=1;absoluteArcSize=1;arcSize=10;dashed=0;whiteSpace=wrap;" vertex="1" parent="9mjTdynTitgVb2BbLHVz-3">
          <mxGeometry x="210" y="285" width="90" height="40" as="geometry" />
        </mxCell>
        <mxCell id="9mjTdynTitgVb2BbLHVz-59" style="edgeStyle=orthogonalEdgeStyle;rounded=0;orthogonalLoop=1;jettySize=auto;html=1;exitX=0.5;exitY=1;exitDx=0;exitDy=0;entryX=0.5;entryY=0;entryDx=0;entryDy=0;" edge="1" parent="9mjTdynTitgVb2BbLHVz-3" source="9mjTdynTitgVb2BbLHVz-56" target="9mjTdynTitgVb2BbLHVz-58">
          <mxGeometry relative="1" as="geometry" />
        </mxCell>
        <mxCell id="9mjTdynTitgVb2BbLHVz-56" value="Analizar automatización" style="html=1;align=center;verticalAlign=top;rounded=1;absoluteArcSize=1;arcSize=10;dashed=0;whiteSpace=wrap;" vertex="1" parent="9mjTdynTitgVb2BbLHVz-3">
          <mxGeometry x="205" y="450" width="100" height="40" as="geometry" />
        </mxCell>
        <mxCell id="9mjTdynTitgVb2BbLHVz-64" style="edgeStyle=orthogonalEdgeStyle;rounded=0;orthogonalLoop=1;jettySize=auto;html=1;exitX=0.5;exitY=1;exitDx=0;exitDy=0;entryX=1;entryY=0.5;entryDx=0;entryDy=0;" edge="1" parent="9mjTdynTitgVb2BbLHVz-3" source="9mjTdynTitgVb2BbLHVz-58" target="9mjTdynTitgVb2BbLHVz-62">
          <mxGeometry relative="1" as="geometry" />
        </mxCell>
        <mxCell id="9mjTdynTitgVb2BbLHVz-58" value="" style="rhombus;" vertex="1" parent="9mjTdynTitgVb2BbLHVz-3">
          <mxGeometry x="240" y="510" width="30" height="30" as="geometry" />
        </mxCell>
        <mxCell id="9mjTdynTitgVb2BbLHVz-81" style="edgeStyle=orthogonalEdgeStyle;rounded=0;orthogonalLoop=1;jettySize=auto;html=1;exitX=0;exitY=0.5;exitDx=0;exitDy=0;entryX=0;entryY=0.5;entryDx=0;entryDy=0;" edge="1" parent="9mjTdynTitgVb2BbLHVz-3" source="9mjTdynTitgVb2BbLHVz-62" target="9mjTdynTitgVb2BbLHVz-77">
          <mxGeometry relative="1" as="geometry">
            <Array as="points">
              <mxPoint x="20" y="580" />
              <mxPoint x="20" y="890" />
            </Array>
          </mxGeometry>
        </mxCell>
        <mxCell id="9mjTdynTitgVb2BbLHVz-62" value="Marcar para revisión posterior" style="html=1;align=center;verticalAlign=top;rounded=1;absoluteArcSize=1;arcSize=10;dashed=0;whiteSpace=wrap;" vertex="1" parent="9mjTdynTitgVb2BbLHVz-3">
          <mxGeometry x="110" y="560" width="110" height="40" as="geometry" />
        </mxCell>
        <mxCell id="9mjTdynTitgVb2BbLHVz-68" value="v" style="html=1;points=[];perimeter=orthogonalPerimeter;fillColor=strokeColor;rotation=-90;" vertex="1" parent="9mjTdynTitgVb2BbLHVz-3">
          <mxGeometry x="155" y="660" width="5" height="80" as="geometry" />
        </mxCell>
        <mxCell id="9mjTdynTitgVb2BbLHVz-70" value="Realizar prueba inicial" style="html=1;align=center;verticalAlign=top;rounded=1;absoluteArcSize=1;arcSize=10;dashed=0;whiteSpace=wrap;" vertex="1" parent="9mjTdynTitgVb2BbLHVz-3">
          <mxGeometry x="35" y="740" width="110" height="40" as="geometry" />
        </mxCell>
        <mxCell id="9mjTdynTitgVb2BbLHVz-71" value="Generar documentación" style="html=1;align=center;verticalAlign=top;rounded=1;absoluteArcSize=1;arcSize=10;dashed=0;whiteSpace=wrap;" vertex="1" parent="9mjTdynTitgVb2BbLHVz-3">
          <mxGeometry x="185" y="740" width="110" height="40" as="geometry" />
        </mxCell>
        <mxCell id="9mjTdynTitgVb2BbLHVz-72" value="" style="html=1;verticalAlign=bottom;labelBackgroundColor=none;endArrow=block;endFill=1;rounded=0;entryX=0.5;entryY=0;entryDx=0;entryDy=0;exitX=0.589;exitY=0.219;exitDx=0;exitDy=0;exitPerimeter=0;" edge="1" parent="9mjTdynTitgVb2BbLHVz-3" source="9mjTdynTitgVb2BbLHVz-68" target="9mjTdynTitgVb2BbLHVz-70">
          <mxGeometry width="160" relative="1" as="geometry">
            <mxPoint x="-30" y="700" as="sourcePoint" />
            <mxPoint x="130" y="700" as="targetPoint" />
          </mxGeometry>
        </mxCell>
        <mxCell id="9mjTdynTitgVb2BbLHVz-73" value="" style="html=1;verticalAlign=bottom;labelBackgroundColor=none;endArrow=block;endFill=1;rounded=0;entryX=0.5;entryY=0;entryDx=0;entryDy=0;exitX=0.589;exitY=0.747;exitDx=0;exitDy=0;exitPerimeter=0;" edge="1" parent="9mjTdynTitgVb2BbLHVz-3" source="9mjTdynTitgVb2BbLHVz-68" target="9mjTdynTitgVb2BbLHVz-71">
          <mxGeometry width="160" relative="1" as="geometry">
            <mxPoint x="-30" y="700" as="sourcePoint" />
            <mxPoint x="130" y="700" as="targetPoint" />
          </mxGeometry>
        </mxCell>
        <mxCell id="9mjTdynTitgVb2BbLHVz-74" value="v" style="html=1;points=[];perimeter=orthogonalPerimeter;fillColor=strokeColor;rotation=-90;" vertex="1" parent="9mjTdynTitgVb2BbLHVz-3">
          <mxGeometry x="162.5" y="790" width="5" height="80" as="geometry" />
        </mxCell>
        <mxCell id="9mjTdynTitgVb2BbLHVz-75" style="edgeStyle=orthogonalEdgeStyle;rounded=0;orthogonalLoop=1;jettySize=auto;html=1;exitX=0.5;exitY=1;exitDx=0;exitDy=0;entryX=0.589;entryY=0.226;entryDx=0;entryDy=0;entryPerimeter=0;" edge="1" parent="9mjTdynTitgVb2BbLHVz-3" source="9mjTdynTitgVb2BbLHVz-70" target="9mjTdynTitgVb2BbLHVz-74">
          <mxGeometry relative="1" as="geometry" />
        </mxCell>
        <mxCell id="9mjTdynTitgVb2BbLHVz-76" style="edgeStyle=orthogonalEdgeStyle;rounded=0;orthogonalLoop=1;jettySize=auto;html=1;exitX=0.5;exitY=1;exitDx=0;exitDy=0;entryX=0.811;entryY=0.726;entryDx=0;entryDy=0;entryPerimeter=0;" edge="1" parent="9mjTdynTitgVb2BbLHVz-3" source="9mjTdynTitgVb2BbLHVz-71" target="9mjTdynTitgVb2BbLHVz-74">
          <mxGeometry relative="1" as="geometry" />
        </mxCell>
        <mxCell id="9mjTdynTitgVb2BbLHVz-84" style="edgeStyle=orthogonalEdgeStyle;rounded=0;orthogonalLoop=1;jettySize=auto;html=1;exitX=0.5;exitY=1;exitDx=0;exitDy=0;entryX=0.5;entryY=0;entryDx=0;entryDy=0;" edge="1" parent="9mjTdynTitgVb2BbLHVz-3" source="9mjTdynTitgVb2BbLHVz-77" target="9mjTdynTitgVb2BbLHVz-80">
          <mxGeometry relative="1" as="geometry" />
        </mxCell>
        <mxCell id="9mjTdynTitgVb2BbLHVz-77" value="" style="shape=collate;html=1;" vertex="1" parent="9mjTdynTitgVb2BbLHVz-3">
          <mxGeometry x="145" y="870" width="40" height="40" as="geometry" />
        </mxCell>
        <mxCell id="9mjTdynTitgVb2BbLHVz-78" value="1 mes" style="text;html=1;align=center;verticalAlign=middle;resizable=0;points=[];autosize=1;strokeColor=none;fillColor=none;" vertex="1" parent="9mjTdynTitgVb2BbLHVz-3">
          <mxGeometry x="167.5" y="875" width="60" height="30" as="geometry" />
        </mxCell>
        <mxCell id="9mjTdynTitgVb2BbLHVz-79" value="" style="html=1;verticalAlign=bottom;labelBackgroundColor=none;endArrow=block;endFill=1;rounded=0;entryX=0.5;entryY=0;entryDx=0;entryDy=0;exitX=0.589;exitY=0.497;exitDx=0;exitDy=0;exitPerimeter=0;" edge="1" parent="9mjTdynTitgVb2BbLHVz-3" source="9mjTdynTitgVb2BbLHVz-74" target="9mjTdynTitgVb2BbLHVz-77">
          <mxGeometry width="160" relative="1" as="geometry">
            <mxPoint x="145" y="710" as="sourcePoint" />
            <mxPoint x="100" y="750" as="targetPoint" />
          </mxGeometry>
        </mxCell>
        <mxCell id="9mjTdynTitgVb2BbLHVz-83" style="edgeStyle=orthogonalEdgeStyle;rounded=0;orthogonalLoop=1;jettySize=auto;html=1;exitX=0.5;exitY=1;exitDx=0;exitDy=0;entryX=0.5;entryY=0;entryDx=0;entryDy=0;" edge="1" parent="9mjTdynTitgVb2BbLHVz-3" source="9mjTdynTitgVb2BbLHVz-80" target="9mjTdynTitgVb2BbLHVz-82">
          <mxGeometry relative="1" as="geometry" />
        </mxCell>
        <mxCell id="9mjTdynTitgVb2BbLHVz-80" value="Evaluar efectividad de las medidas" style="html=1;align=center;verticalAlign=top;rounded=1;absoluteArcSize=1;arcSize=10;dashed=0;whiteSpace=wrap;" vertex="1" parent="9mjTdynTitgVb2BbLHVz-3">
          <mxGeometry x="110" y="940" width="110" height="40" as="geometry" />
        </mxCell>
        <mxCell id="9mjTdynTitgVb2BbLHVz-82" value="" style="ellipse;html=1;shape=endState;fillColor=strokeColor;" vertex="1" parent="9mjTdynTitgVb2BbLHVz-3">
          <mxGeometry x="150" y="1010" width="30" height="30" as="geometry" />
        </mxCell>
        <mxCell id="9mjTdynTitgVb2BbLHVz-11" style="edgeStyle=orthogonalEdgeStyle;rounded=0;orthogonalLoop=1;jettySize=auto;html=1;exitX=0;exitY=0.5;exitDx=0;exitDy=0;entryX=0.5;entryY=0;entryDx=0;entryDy=0;" edge="1" parent="9mjTdynTitgVb2BbLHVz-1" source="9mjTdynTitgVb2BbLHVz-8" target="9mjTdynTitgVb2BbLHVz-10">
          <mxGeometry relative="1" as="geometry" />
        </mxCell>
        <mxCell id="9mjTdynTitgVb2BbLHVz-17" style="edgeStyle=orthogonalEdgeStyle;rounded=0;orthogonalLoop=1;jettySize=auto;html=1;exitX=1;exitY=0.5;exitDx=0;exitDy=0;" edge="1" parent="9mjTdynTitgVb2BbLHVz-1" source="9mjTdynTitgVb2BbLHVz-12" target="9mjTdynTitgVb2BbLHVz-16">
          <mxGeometry relative="1" as="geometry" />
        </mxCell>
        <mxCell id="9mjTdynTitgVb2BbLHVz-5" value="Departamento de desarrollo" style="swimlane;startSize=20;" vertex="1" parent="1">
          <mxGeometry x="1400" y="250" width="360" height="1070" as="geometry" />
        </mxCell>
        <mxCell id="9mjTdynTitgVb2BbLHVz-48" value="" style="html=1;align=center;verticalAlign=top;rounded=1;absoluteArcSize=1;arcSize=20;dashed=1;whiteSpace=wrap;" vertex="1" parent="9mjTdynTitgVb2BbLHVz-5">
          <mxGeometry x="80" y="330" width="200" height="100" as="geometry" />
        </mxCell>
        <mxCell id="9mjTdynTitgVb2BbLHVz-54" style="edgeStyle=orthogonalEdgeStyle;rounded=0;orthogonalLoop=1;jettySize=auto;html=1;exitX=0.5;exitY=1;exitDx=0;exitDy=0;entryX=0.5;entryY=0;entryDx=0;entryDy=0;" edge="1" parent="9mjTdynTitgVb2BbLHVz-5" source="9mjTdynTitgVb2BbLHVz-46" target="9mjTdynTitgVb2BbLHVz-49">
          <mxGeometry relative="1" as="geometry" />
        </mxCell>
        <mxCell id="9mjTdynTitgVb2BbLHVz-46" value="Analizar automatización" style="html=1;align=center;verticalAlign=top;rounded=1;absoluteArcSize=1;arcSize=10;dashed=0;whiteSpace=wrap;" vertex="1" parent="9mjTdynTitgVb2BbLHVz-5">
          <mxGeometry x="130" y="380" width="100" height="40" as="geometry" />
        </mxCell>
        <mxCell id="9mjTdynTitgVb2BbLHVz-66" style="edgeStyle=orthogonalEdgeStyle;rounded=0;orthogonalLoop=1;jettySize=auto;html=1;exitX=0.5;exitY=1;exitDx=0;exitDy=0;" edge="1" parent="9mjTdynTitgVb2BbLHVz-5" source="9mjTdynTitgVb2BbLHVz-49" target="9mjTdynTitgVb2BbLHVz-65">
          <mxGeometry relative="1" as="geometry" />
        </mxCell>
        <mxCell id="9mjTdynTitgVb2BbLHVz-49" value="Desarrollar herramienta" style="html=1;align=center;verticalAlign=top;rounded=1;absoluteArcSize=1;arcSize=10;dashed=0;whiteSpace=wrap;" vertex="1" parent="9mjTdynTitgVb2BbLHVz-5">
          <mxGeometry x="135" y="570" width="90" height="40" as="geometry" />
        </mxCell>
        <mxCell id="9mjTdynTitgVb2BbLHVz-53" style="edgeStyle=orthogonalEdgeStyle;rounded=0;orthogonalLoop=1;jettySize=auto;html=1;exitX=0;exitY=0;exitDx=71.25;exitDy=30;exitPerimeter=0;entryX=0.5;entryY=0;entryDx=0;entryDy=0;" edge="1" parent="9mjTdynTitgVb2BbLHVz-5" source="9mjTdynTitgVb2BbLHVz-51" target="9mjTdynTitgVb2BbLHVz-52">
          <mxGeometry relative="1" as="geometry" />
        </mxCell>
        <mxCell id="9mjTdynTitgVb2BbLHVz-51" value="&amp;gt; 10.000 €" style="html=1;shape=mxgraph.infographic.ribbonSimple;notch1=10.22;notch2=0;align=center;verticalAlign=middle;fontSize=14;fontStyle=0;fillColor=#FFFFFF;whiteSpace=wrap;flipH=1;" vertex="1" parent="9mjTdynTitgVb2BbLHVz-5">
          <mxGeometry x="40" y="340" width="95" height="30" as="geometry" />
        </mxCell>
        <mxCell id="9mjTdynTitgVb2BbLHVz-52" value="Consultar gerencia" style="html=1;align=center;verticalAlign=top;rounded=1;absoluteArcSize=1;arcSize=10;dashed=0;whiteSpace=wrap;" vertex="1" parent="9mjTdynTitgVb2BbLHVz-5">
          <mxGeometry x="20" y="470" width="90" height="40" as="geometry" />
        </mxCell>
        <mxCell id="9mjTdynTitgVb2BbLHVz-65" value="Enviar a SOC" style="html=1;align=center;verticalAlign=top;rounded=1;absoluteArcSize=1;arcSize=10;dashed=0;whiteSpace=wrap;" vertex="1" parent="9mjTdynTitgVb2BbLHVz-5">
          <mxGeometry x="125" y="650" width="110" height="30" as="geometry" />
        </mxCell>
        <mxCell id="9mjTdynTitgVb2BbLHVz-6" value="Departamento de RRHH" style="swimlane;startSize=20;" vertex="1" parent="1">
          <mxGeometry x="550" y="250" width="250" height="1070" as="geometry" />
        </mxCell>
        <mxCell id="9mjTdynTitgVb2BbLHVz-24" value="v" style="html=1;points=[];perimeter=orthogonalPerimeter;fillColor=strokeColor;rotation=-90;" vertex="1" parent="9mjTdynTitgVb2BbLHVz-6">
          <mxGeometry x="122.5" y="390" width="5" height="80" as="geometry" />
        </mxCell>
        <mxCell id="9mjTdynTitgVb2BbLHVz-27" value="Recabar datos empleados" style="html=1;align=center;verticalAlign=top;rounded=1;absoluteArcSize=1;arcSize=10;dashed=0;whiteSpace=wrap;" vertex="1" parent="9mjTdynTitgVb2BbLHVz-6">
          <mxGeometry x="130" y="470" width="100" height="40" as="geometry" />
        </mxCell>
        <mxCell id="9mjTdynTitgVb2BbLHVz-30" style="edgeStyle=orthogonalEdgeStyle;rounded=0;orthogonalLoop=1;jettySize=auto;html=1;exitX=0.5;exitY=1;exitDx=0;exitDy=0;entryX=0.5;entryY=0;entryDx=0;entryDy=0;" edge="1" parent="9mjTdynTitgVb2BbLHVz-6" source="9mjTdynTitgVb2BbLHVz-28" target="9mjTdynTitgVb2BbLHVz-29">
          <mxGeometry relative="1" as="geometry" />
        </mxCell>
        <mxCell id="9mjTdynTitgVb2BbLHVz-28" value="Consultar catálogo centro de formación" style="html=1;align=center;verticalAlign=top;rounded=1;absoluteArcSize=1;arcSize=10;dashed=0;whiteSpace=wrap;" vertex="1" parent="9mjTdynTitgVb2BbLHVz-6">
          <mxGeometry x="10" y="460" width="107.5" height="60" as="geometry" />
        </mxCell>
        <mxCell id="9mjTdynTitgVb2BbLHVz-29" value="Contratar curso" style="html=1;align=center;verticalAlign=top;rounded=1;absoluteArcSize=1;arcSize=10;dashed=0;whiteSpace=wrap;" vertex="1" parent="9mjTdynTitgVb2BbLHVz-6">
          <mxGeometry x="28.75" y="540" width="70" height="40" as="geometry" />
        </mxCell>
        <mxCell id="9mjTdynTitgVb2BbLHVz-31" value="" style="html=1;points=[];perimeter=orthogonalPerimeter;fillColor=strokeColor;rotation=-90;" vertex="1" parent="9mjTdynTitgVb2BbLHVz-6">
          <mxGeometry x="122.5" y="590" width="5" height="80" as="geometry" />
        </mxCell>
        <mxCell id="9mjTdynTitgVb2BbLHVz-35" value="" style="html=1;verticalAlign=bottom;labelBackgroundColor=none;endArrow=block;endFill=1;rounded=0;entryX=0.5;entryY=0;entryDx=0;entryDy=0;exitX=0.144;exitY=0.233;exitDx=0;exitDy=0;exitPerimeter=0;" edge="1" parent="9mjTdynTitgVb2BbLHVz-6" source="9mjTdynTitgVb2BbLHVz-24" target="9mjTdynTitgVb2BbLHVz-28">
          <mxGeometry width="160" relative="1" as="geometry">
            <mxPoint x="270" y="480" as="sourcePoint" />
            <mxPoint x="430" y="480" as="targetPoint" />
          </mxGeometry>
        </mxCell>
        <mxCell id="9mjTdynTitgVb2BbLHVz-36" value="" style="html=1;verticalAlign=bottom;labelBackgroundColor=none;endArrow=block;endFill=1;rounded=0;entryX=0.5;entryY=0;entryDx=0;entryDy=0;exitX=-0.078;exitY=0.761;exitDx=0;exitDy=0;exitPerimeter=0;" edge="1" parent="9mjTdynTitgVb2BbLHVz-6" source="9mjTdynTitgVb2BbLHVz-24" target="9mjTdynTitgVb2BbLHVz-27">
          <mxGeometry width="160" relative="1" as="geometry">
            <mxPoint x="295" y="490" as="sourcePoint" />
            <mxPoint x="455" y="490" as="targetPoint" />
          </mxGeometry>
        </mxCell>
        <mxCell id="9mjTdynTitgVb2BbLHVz-43" style="edgeStyle=orthogonalEdgeStyle;rounded=0;orthogonalLoop=1;jettySize=auto;html=1;exitX=0.5;exitY=1;exitDx=0;exitDy=0;entryX=0.5;entryY=0;entryDx=0;entryDy=0;" edge="1" parent="9mjTdynTitgVb2BbLHVz-6" source="9mjTdynTitgVb2BbLHVz-37" target="9mjTdynTitgVb2BbLHVz-42">
          <mxGeometry relative="1" as="geometry" />
        </mxCell>
        <mxCell id="9mjTdynTitgVb2BbLHVz-37" value="Notificar empleados" style="html=1;align=center;verticalAlign=top;rounded=1;absoluteArcSize=1;arcSize=10;dashed=0;whiteSpace=wrap;" vertex="1" parent="9mjTdynTitgVb2BbLHVz-6">
          <mxGeometry x="75" y="680" width="100" height="40" as="geometry" />
        </mxCell>
        <mxCell id="9mjTdynTitgVb2BbLHVz-38" value="" style="html=1;verticalAlign=bottom;labelBackgroundColor=none;endArrow=block;endFill=1;rounded=0;entryX=0.5;entryY=0;entryDx=0;entryDy=0;exitX=0.811;exitY=0.511;exitDx=0;exitDy=0;exitPerimeter=0;" edge="1" parent="9mjTdynTitgVb2BbLHVz-6" source="9mjTdynTitgVb2BbLHVz-31" target="9mjTdynTitgVb2BbLHVz-37">
          <mxGeometry width="160" relative="1" as="geometry">
            <mxPoint x="156" y="443" as="sourcePoint" />
            <mxPoint x="190" y="480" as="targetPoint" />
          </mxGeometry>
        </mxCell>
        <mxCell id="9mjTdynTitgVb2BbLHVz-39" style="edgeStyle=orthogonalEdgeStyle;rounded=0;orthogonalLoop=1;jettySize=auto;html=1;exitX=0.5;exitY=1;exitDx=0;exitDy=0;entryX=1.256;entryY=0.247;entryDx=0;entryDy=0;entryPerimeter=0;" edge="1" parent="9mjTdynTitgVb2BbLHVz-6" source="9mjTdynTitgVb2BbLHVz-29" target="9mjTdynTitgVb2BbLHVz-31">
          <mxGeometry relative="1" as="geometry" />
        </mxCell>
        <mxCell id="9mjTdynTitgVb2BbLHVz-40" style="edgeStyle=orthogonalEdgeStyle;rounded=0;orthogonalLoop=1;jettySize=auto;html=1;exitX=0.5;exitY=1;exitDx=0;exitDy=0;entryX=0.589;entryY=0.775;entryDx=0;entryDy=0;entryPerimeter=0;" edge="1" parent="9mjTdynTitgVb2BbLHVz-6" source="9mjTdynTitgVb2BbLHVz-27" target="9mjTdynTitgVb2BbLHVz-31">
          <mxGeometry relative="1" as="geometry" />
        </mxCell>
        <mxCell id="9mjTdynTitgVb2BbLHVz-42" value="" style="shape=sumEllipse;perimeter=ellipsePerimeter;html=1;backgroundOutline=1;" vertex="1" parent="9mjTdynTitgVb2BbLHVz-6">
          <mxGeometry x="110" y="770" width="30" height="30" as="geometry" />
        </mxCell>
        <mxCell id="9mjTdynTitgVb2BbLHVz-26" style="edgeStyle=orthogonalEdgeStyle;rounded=0;orthogonalLoop=1;jettySize=auto;html=1;exitX=0;exitY=0.5;exitDx=0;exitDy=0;entryX=1.033;entryY=0.525;entryDx=0;entryDy=0;entryPerimeter=0;" edge="1" parent="1" source="9mjTdynTitgVb2BbLHVz-22" target="9mjTdynTitgVb2BbLHVz-24">
          <mxGeometry relative="1" as="geometry" />
        </mxCell>
        <mxCell id="9mjTdynTitgVb2BbLHVz-47" style="edgeStyle=orthogonalEdgeStyle;rounded=0;orthogonalLoop=1;jettySize=auto;html=1;exitX=1;exitY=0.5;exitDx=0;exitDy=0;" edge="1" parent="1" source="9mjTdynTitgVb2BbLHVz-44" target="9mjTdynTitgVb2BbLHVz-46">
          <mxGeometry relative="1" as="geometry" />
        </mxCell>
        <mxCell id="9mjTdynTitgVb2BbLHVz-57" style="edgeStyle=orthogonalEdgeStyle;rounded=0;orthogonalLoop=1;jettySize=auto;html=1;exitX=0;exitY=0.5;exitDx=0;exitDy=0;entryX=1;entryY=0.5;entryDx=0;entryDy=0;" edge="1" parent="1" source="9mjTdynTitgVb2BbLHVz-52" target="9mjTdynTitgVb2BbLHVz-56">
          <mxGeometry relative="1" as="geometry" />
        </mxCell>
        <mxCell id="9mjTdynTitgVb2BbLHVz-60" style="edgeStyle=orthogonalEdgeStyle;rounded=0;orthogonalLoop=1;jettySize=auto;html=1;exitX=1;exitY=0.5;exitDx=0;exitDy=0;entryX=0;entryY=0.5;entryDx=0;entryDy=0;" edge="1" parent="1" source="9mjTdynTitgVb2BbLHVz-58" target="9mjTdynTitgVb2BbLHVz-49">
          <mxGeometry relative="1" as="geometry">
            <Array as="points">
              <mxPoint x="1460" y="795" />
              <mxPoint x="1460" y="840" />
            </Array>
          </mxGeometry>
        </mxCell>
        <mxCell id="9mjTdynTitgVb2BbLHVz-69" style="edgeStyle=orthogonalEdgeStyle;rounded=0;orthogonalLoop=1;jettySize=auto;html=1;exitX=0;exitY=0.5;exitDx=0;exitDy=0;entryX=1.033;entryY=0.511;entryDx=0;entryDy=0;entryPerimeter=0;" edge="1" parent="1" source="9mjTdynTitgVb2BbLHVz-65" target="9mjTdynTitgVb2BbLHVz-68">
          <mxGeometry relative="1" as="geometry" />
        </mxCell>
      </root>
    </mxGraphModel>
  </diagram>
</mxfile>
